<svg width="51" height="51" viewBox="0 0 51 51" fill="none" xmlns="http://www.w3.org/2000/svg">
<rect width="51" height="51" rx="25.5" fill="#F2F2F2"/>
<path d="M15.448 39.38C13.4467 39.38 11.914 38.81 10.85 37.67C9.81133 36.53 9.292 34.9213 9.292 32.844V18.556C9.292 16.4787 9.81133 14.87 10.85 13.73C11.914 12.59 13.4467 12.02 15.448 12.02C17.4493 12.02 18.9693 12.59 20.008 13.73C21.072 14.87 21.604 16.4787 21.604 18.556V21.368H17.652V18.29C17.652 16.6433 16.9553 15.82 15.562 15.82C14.1687 15.82 13.472 16.6433 13.472 18.29V33.148C13.472 34.7693 14.1687 35.58 15.562 35.58C16.9553 35.58 17.652 34.7693 17.652 33.148V29.082H21.604V32.844C21.604 34.9213 21.072 36.53 20.008 37.67C18.9693 38.81 17.4493 39.38 15.448 39.38ZM24.1049 12.4H28.2849V23.23H32.7689V12.4H36.9489V39H32.7689V27.03H28.2849V39H24.1049V12.4ZM40.0619 34.972H44.0899V39H40.0619V34.972Z" fill="#1A1A1A"/>
</svg>
